<?xml version="1.0" encoding="UTF-8" standalone="no"?>
<svg width="93.6625mm" height="32.0146mm"
 xmlns="http://www.w3.org/2000/svg" xmlns:xlink="http://www.w3.org/1999/xlink"  version="1.2" baseProfile="tiny">
<title>Absolute change 2 new</title>
<desc>Rendered by Tableau</desc>
<defs>
</defs>
<g fill="none" stroke="black" stroke-width="1" fill-rule="evenodd" stroke-linecap="square" stroke-linejoin="bevel" >

<g >
<g fill="#ffffff" fill-opacity="1" stroke="none" transform="matrix(1,0,0,1,0,0)"
font-family="Benton Sans Book" font-size="16" font-weight="400" font-style="normal" 
>
<rect x="0" y="0" width="354" height="121"/>
</g>
</g>

<g >
<g fill="#ffffff" fill-opacity="1" stroke="none" transform="matrix(1,0,0,1,0,0)"
font-family="Benton Sans Book" font-size="16" font-weight="400" font-style="normal" 
>
<rect x="0" y="0" width="353" height="120"/>
</g>
</g>

<clipPath id ="clip1" >
<rect x="0" y="0" height="120" width="353" transform="matrix(1,0,0,1,0,0)" />
</clipPath>
<g  clip-path="url(#clip1)" 
>
<g fill="none" stroke="#000000" stroke-opacity="1" stroke-width="1" stroke-linecap="square" stroke-linejoin="bevel" transform="matrix(1,0,0,1,0,0)"
font-family="Benton Sans Book" font-size="16" font-weight="400" font-style="normal" 
>
</g>
</g>

<g  clip-path="url(#clip1)" 
>
<g fill="none" stroke="#333333" stroke-opacity="1" stroke-width="1" stroke-linecap="square" stroke-linejoin="bevel" transform="matrix(1,0,0,1,0,0)"
font-family="Arial" font-size="12" font-weight="400" font-style="normal" 
>
<text fill="#333333" fill-opacity="1" stroke="none" xml:space="preserve" x="6" y="34" font-family="Arial" font-size="12" font-weight="400" font-style="normal" 
 >Diet Pattern</text>
</g>
</g>

<g >
<g fill="none" stroke="#333333" stroke-opacity="1" stroke-width="1" stroke-linecap="square" stroke-linejoin="bevel" transform="matrix(1,0,0,1,0,0)"
font-family="Arial" font-size="12" font-weight="400" font-style="normal" 
>
</g>
</g>

<clipPath id ="clip2" >
<rect x="-1" y="-1" height="42" width="275" transform="matrix(1,0,0,1,80,0)" />
</clipPath>
<g  clip-path="url(#clip2)" 
>
<g fill="none" stroke="#333333" stroke-opacity="1" stroke-width="1" stroke-linecap="square" stroke-linejoin="bevel" transform="matrix(1,0,0,1,80,0)"
font-family="Arial" font-size="12" font-weight="400" font-style="normal" 
>
</g>
</g>

<g  clip-path="url(#clip2)" 
>
<g fill="none" stroke="#333333" stroke-opacity="1" stroke-width="1" stroke-linecap="square" stroke-linejoin="bevel" transform="matrix(1,0,0,1,80,0)"
font-family="Arial" font-size="12" font-weight="400" font-style="normal" 
>
<text fill="#333333" fill-opacity="1" stroke="none" xml:space="preserve" x="112.172" y="14" font-family="Arial" font-size="12" font-weight="400" font-style="normal" 
 >Outcome</text>
</g>
</g>

<g  clip-path="url(#clip2)" 
>
<g fill="none" stroke="#333333" stroke-opacity="1" stroke-width="1" stroke-linecap="square" stroke-linejoin="bevel" transform="matrix(1,0,0,1,80,0)"
font-family="Arial" font-size="12" font-weight="400" font-style="normal" 
>
<text fill="#333333" fill-opacity="1" stroke="none" xml:space="preserve" x="72.4531" y="34" font-family="Arial" font-size="12" font-weight="400" font-style="normal" 
 >Forced labor risk (mrh-eq/capita/day)</text>
</g>
</g>

<g >
<g fill="none" stroke="#333333" stroke-opacity="1" stroke-width="1" stroke-linecap="square" stroke-linejoin="bevel" transform="matrix(1,0,0,1,80,0)"
font-family="Arial" font-size="12" font-weight="400" font-style="normal" 
>
</g>
</g>

<clipPath id ="clip3" >
<rect x="-1" y="-1" height="82" width="82" transform="matrix(1,0,0,1,0,40)" />
</clipPath>
<g  clip-path="url(#clip3)" 
>
<g fill="none" stroke="#333333" stroke-opacity="1" stroke-width="1" stroke-linecap="square" stroke-linejoin="bevel" transform="matrix(1,0,0,1,0,40)"
font-family="Arial" font-size="12" font-weight="400" font-style="normal" 
>
</g>
</g>

<g  clip-path="url(#clip3)" 
>
<g fill="none" stroke="#333333" stroke-opacity="1" stroke-width="1" stroke-linecap="square" stroke-linejoin="bevel" transform="matrix(1,0,0,1,0,40)"
font-family="Arial" font-size="12" font-weight="400" font-style="normal" 
>
<text fill="#333333" fill-opacity="1" stroke="none" xml:space="preserve" x="6" y="14" font-family="Arial" font-size="12" font-weight="400" font-style="normal" 
 >MED</text>
</g>
</g>

<g  clip-path="url(#clip3)" 
>
<g fill="#f5f5f5" fill-opacity="1" stroke="none" transform="matrix(1,0,0,1,0,40)"
font-family="Arial" font-size="12" font-weight="400" font-style="normal" 
>
<rect x="0" y="20" width="80" height="20"/>
</g>
</g>

<g  clip-path="url(#clip3)" 
>
<g fill="none" stroke="#333333" stroke-opacity="1" stroke-width="1" stroke-linecap="square" stroke-linejoin="bevel" transform="matrix(1,0,0,1,0,40)"
font-family="Arial" font-size="12" font-weight="400" font-style="normal" 
>
<text fill="#333333" fill-opacity="1" stroke="none" xml:space="preserve" x="6" y="34" font-family="Arial" font-size="12" font-weight="400" font-style="normal" 
 >US</text>
</g>
</g>

<g  clip-path="url(#clip3)" 
>
<g fill="none" stroke="#333333" stroke-opacity="1" stroke-width="1" stroke-linecap="square" stroke-linejoin="bevel" transform="matrix(1,0,0,1,0,40)"
font-family="Arial" font-size="12" font-weight="400" font-style="normal" 
>
<text fill="#333333" fill-opacity="1" stroke="none" xml:space="preserve" x="6" y="54" font-family="Arial" font-size="12" font-weight="400" font-style="normal" 
 >VEG</text>
</g>
</g>

<g  clip-path="url(#clip3)" 
>
<g fill="#f5f5f5" fill-opacity="1" stroke="none" transform="matrix(1,0,0,1,0,40)"
font-family="Arial" font-size="12" font-weight="400" font-style="normal" 
>
<rect x="0" y="60" width="80" height="20"/>
</g>
</g>

<g  clip-path="url(#clip3)" 
>
<g fill="none" stroke="#333333" stroke-opacity="1" stroke-width="1" stroke-linecap="square" stroke-linejoin="bevel" transform="matrix(1,0,0,1,0,40)"
font-family="Arial" font-size="12" font-weight="400" font-style="normal" 
>
<text fill="#333333" fill-opacity="1" stroke="none" xml:space="preserve" x="6" y="74" font-family="Arial" font-size="12" font-weight="400" font-style="normal" 
 >VEGN</text>
</g>
</g>

<g  clip-path="url(#clip3)" 
>
<g fill="none" stroke="#cbcbcb" stroke-opacity="1" stroke-width="1" stroke-linecap="square" stroke-linejoin="bevel" transform="matrix(1,0,0,1,0,40)"
font-family="Arial" font-size="12" font-weight="400" font-style="normal" 
>
<polyline fill="none" vector-effect="none" points="80,0 0,0 " />
<polyline fill="none" vector-effect="none" points="80,80 0,80 " />
</g>
</g>

<g >
<g fill="none" stroke="#cbcbcb" stroke-opacity="1" stroke-width="1" stroke-linecap="square" stroke-linejoin="bevel" transform="matrix(1,0,0,1,0,40)"
font-family="Arial" font-size="12" font-weight="400" font-style="normal" 
>
</g>
</g>

<g  clip-path="url(#clip3)" 
>
<g fill="none" stroke="#cbcbcb" stroke-opacity="1" stroke-width="1" stroke-linecap="square" stroke-linejoin="bevel" transform="matrix(1,0,0,1,80,40)"
font-family="Arial" font-size="12" font-weight="400" font-style="normal" 
>
</g>
</g>

<clipPath id ="clip4" >
<rect x="0" y="0" height="81" width="274" transform="matrix(1,0,0,1,80,40)" />
</clipPath>
<g  clip-path="url(#clip4)" 
>
<g fill="none" stroke="#cbcbcb" stroke-opacity="1" stroke-width="1" stroke-linecap="square" stroke-linejoin="bevel" transform="matrix(1,0,0,1,80,40)"
font-family="Arial" font-size="12" font-weight="400" font-style="normal" 
>
</g>
</g>

<clipPath id ="clip5" >
<rect x="0" y="0" height="81" width="274" transform="matrix(1,0,0,1,80,40)" />
</clipPath>
<g  clip-path="url(#clip5)" 
>
<g fill="none" stroke="#cbcbcb" stroke-opacity="1" stroke-width="1" stroke-linecap="square" stroke-linejoin="bevel" transform="matrix(1,0,0,1,80,40)"
font-family="Arial" font-size="12" font-weight="400" font-style="normal" 
>
</g>
</g>

<g  clip-path="url(#clip5)" 
>
<g fill="#ffffff" fill-opacity="1" stroke="none" transform="matrix(1,0,0,1,80,40)"
font-family="Arial" font-size="12" font-weight="400" font-style="normal" 
>
<rect x="0" y="0" width="274" height="81"/>
</g>
</g>

<g  clip-path="url(#clip5)" 
>
<g fill="#ffffff" fill-opacity="1" stroke="none" transform="matrix(1,0,0,1,80,40)"
font-family="Arial" font-size="12" font-weight="400" font-style="normal" 
>
<rect x="0" y="0" width="274" height="81"/>
</g>
</g>

<clipPath id ="clip6" >
<rect x="0" y="0" height="81" width="274" transform="matrix(1,0,0,1,80,40)" />
</clipPath>
<g  clip-path="url(#clip6)" 
>
<g fill="none" stroke="#cbcbcb" stroke-opacity="1" stroke-width="1" stroke-linecap="square" stroke-linejoin="bevel" transform="matrix(1,0,0,1,80,40)"
font-family="Arial" font-size="12" font-weight="400" font-style="normal" 
>
</g>
</g>

<g  clip-path="url(#clip6)" 
>
<g fill="#ffffff" fill-opacity="1" stroke="none" transform="matrix(1,0,0,1,80,40)"
font-family="Arial" font-size="12" font-weight="400" font-style="normal" 
>
<rect x="0" y="0" width="274" height="81"/>
</g>
</g>

<clipPath id ="clip7" >
<rect x="0" y="0" height="81" width="274" transform="matrix(1,0,0,1,80,40)" />
</clipPath>
<g  clip-path="url(#clip7)" 
>
<g fill="none" stroke="#cbcbcb" stroke-opacity="1" stroke-width="1" stroke-linecap="square" stroke-linejoin="bevel" transform="matrix(1,0,0,1,80,40)"
font-family="Arial" font-size="12" font-weight="400" font-style="normal" 
>
</g>
</g>

<clipPath id ="clip8" >
<rect x="0" y="0" height="81" width="274" transform="matrix(1,0,0,1,80,40)" />
</clipPath>
<g  clip-path="url(#clip8)" 
>
<g fill="none" stroke="#cbcbcb" stroke-opacity="1" stroke-width="1" stroke-linecap="square" stroke-linejoin="bevel" transform="matrix(1,0,0,1,80,40)"
font-family="Arial" font-size="12" font-weight="400" font-style="normal" 
>
</g>
</g>

<clipPath id ="clip9" >
<rect x="0" y="0" height="81" width="274" transform="matrix(1,0,0,1,80,40)" />
</clipPath>
<g  clip-path="url(#clip9)" 
>
<g fill="none" stroke="#cbcbcb" stroke-opacity="1" stroke-width="1" stroke-linecap="square" stroke-linejoin="bevel" transform="matrix(1,0,0,1,80,40)"
font-family="Arial" font-size="12" font-weight="400" font-style="normal" 
>
</g>
</g>

<clipPath id ="clip10" >
<rect x="0" y="0" height="81" width="274" transform="matrix(1,0,0,1,80,40)" />
</clipPath>
<g  clip-path="url(#clip10)" 
>
<g fill="none" stroke="#cbcbcb" stroke-opacity="1" stroke-width="1" stroke-linecap="square" stroke-linejoin="bevel" transform="matrix(1,0,0,1,80,40)"
font-family="Arial" font-size="12" font-weight="400" font-style="normal" 
>
</g>
</g>

<g  clip-path="url(#clip10)" 
>
<g fill="#ffffff" fill-opacity="1" stroke="none" transform="matrix(1,0,0,1,80,40)"
font-family="Arial" font-size="12" font-weight="400" font-style="normal" 
>
<rect x="0" y="0" width="274" height="81"/>
</g>
</g>

<g  clip-path="url(#clip10)" 
>
<g fill="#f5f5f5" fill-opacity="1" stroke="none" transform="matrix(1,0,0,1,80,40)"
font-family="Arial" font-size="12" font-weight="400" font-style="normal" 
>
<rect x="0" y="20" width="273" height="20"/>
</g>
</g>

<g  clip-path="url(#clip10)" 
>
<g fill="#f5f5f5" fill-opacity="1" stroke="none" transform="matrix(1,0,0,1,80,40)"
font-family="Arial" font-size="12" font-weight="400" font-style="normal" 
>
<rect x="0" y="60" width="273" height="20"/>
</g>
</g>

<clipPath id ="clip11" >
<rect x="0" y="0" height="81" width="274" transform="matrix(1,0,0,1,80,40)" />
</clipPath>
<g  clip-path="url(#clip11)" 
>
<g fill="none" stroke="#cbcbcb" stroke-opacity="1" stroke-width="1" stroke-linecap="square" stroke-linejoin="bevel" transform="matrix(1,0,0,1,80,40)"
font-family="Arial" font-size="12" font-weight="400" font-style="normal" 
>
</g>
</g>

<clipPath id ="clip12" >
<rect x="0" y="0" height="80" width="273" transform="matrix(1,0,0,1,80,40)" />
</clipPath>
<g  clip-path="url(#clip12)" 
>
<g fill="none" stroke="#cbcbcb" stroke-opacity="1" stroke-width="1" stroke-linecap="square" stroke-linejoin="bevel" transform="matrix(1,0,0,1,80,40)"
font-family="Arial" font-size="12" font-weight="400" font-style="normal" 
>
</g>
</g>

<clipPath id ="clip13" >
<rect x="0" y="0" height="81" width="274" transform="matrix(1,0,0,1,80,40)" />
</clipPath>
<g  clip-path="url(#clip13)" 
>
<g fill="none" stroke="#cbcbcb" stroke-opacity="1" stroke-width="1" stroke-linecap="square" stroke-linejoin="bevel" transform="matrix(1,0,0,1,80,40)"
font-family="Arial" font-size="12" font-weight="400" font-style="normal" 
>
</g>
</g>

<clipPath id ="clip14" >
<rect x="0" y="0" height="81" width="274" transform="matrix(1,0,0,1,80,40)" />
</clipPath>
<g  clip-path="url(#clip14)" 
>
<g fill="none" stroke="#cbcbcb" stroke-opacity="1" stroke-width="1" stroke-linecap="square" stroke-linejoin="bevel" transform="matrix(1,0,0,1,80,40)"
font-family="Arial" font-size="12" font-weight="400" font-style="normal" 
>
</g>
</g>

<clipPath id ="clip15" >
<rect x="0" y="0" height="81" width="274" transform="matrix(1,0,0,1,80,40)" />
</clipPath>
<g  clip-path="url(#clip15)" 
>
<g fill="none" stroke="#cbcbcb" stroke-opacity="1" stroke-width="1" stroke-linecap="square" stroke-linejoin="bevel" transform="matrix(1,0,0,1,80,40)"
font-family="Arial" font-size="12" font-weight="400" font-style="normal" 
>
</g>
</g>

<clipPath id ="clip16" >
<rect x="0" y="0" height="80" width="273" transform="matrix(1,0,0,1,80,40)" />
</clipPath>
<g  clip-path="url(#clip16)" 
>
<g fill="none" stroke="#cbcbcb" stroke-opacity="1" stroke-width="1" stroke-linecap="square" stroke-linejoin="bevel" transform="matrix(1,0,0,1,80,40)"
font-family="Arial" font-size="12" font-weight="400" font-style="normal" 
>
</g>
</g>

<clipPath id ="clip17" >
<rect x="0" y="60" height="20" width="273" transform="matrix(1,0,0,1,80,40)" />
</clipPath>
<g  clip-path="url(#clip17)" 
>
<g fill="none" stroke="#cbcbcb" stroke-opacity="1" stroke-width="1" stroke-linecap="square" stroke-linejoin="bevel" transform="matrix(1,0,0,1,80,40)"
font-family="Arial" font-size="12" font-weight="400" font-style="normal" 
>
</g>
</g>

<g  clip-path="url(#clip17)" 
>
<g fill="none" stroke="#333333" stroke-opacity="1" stroke-width="1" stroke-linecap="square" stroke-linejoin="bevel" transform="matrix(1,0,0,1,80,40)"
font-family="Arial" font-size="12" font-weight="400" font-style="normal" 
>
<text fill="#333333" fill-opacity="1" stroke="none" xml:space="preserve" x="225" y="74" font-family="Arial" font-size="12" font-weight="400" font-style="normal" 
 >-0.0327</text>
</g>
</g>

<clipPath id ="clip18" >
<rect x="0" y="40" height="20" width="273" transform="matrix(1,0,0,1,80,40)" />
</clipPath>
<g  clip-path="url(#clip18)" 
>
<g fill="none" stroke="#333333" stroke-opacity="1" stroke-width="1" stroke-linecap="square" stroke-linejoin="bevel" transform="matrix(1,0,0,1,80,40)"
font-family="Arial" font-size="12" font-weight="400" font-style="normal" 
>
</g>
</g>

<g  clip-path="url(#clip18)" 
>
<g fill="none" stroke="#333333" stroke-opacity="1" stroke-width="1" stroke-linecap="square" stroke-linejoin="bevel" transform="matrix(1,0,0,1,80,40)"
font-family="Arial" font-size="12" font-weight="400" font-style="normal" 
>
<text fill="#333333" fill-opacity="1" stroke="none" xml:space="preserve" x="225" y="54" font-family="Arial" font-size="12" font-weight="400" font-style="normal" 
 >-0.0621</text>
</g>
</g>

<clipPath id ="clip19" >
<rect x="0" y="20" height="20" width="273" transform="matrix(1,0,0,1,80,40)" />
</clipPath>
<g  clip-path="url(#clip19)" 
>
<g fill="none" stroke="#333333" stroke-opacity="1" stroke-width="1" stroke-linecap="square" stroke-linejoin="bevel" transform="matrix(1,0,0,1,80,40)"
font-family="Arial" font-size="12" font-weight="400" font-style="normal" 
>
</g>
</g>

<g  clip-path="url(#clip19)" 
>
<g fill="none" stroke="#333333" stroke-opacity="1" stroke-width="1" stroke-linecap="square" stroke-linejoin="bevel" transform="matrix(1,0,0,1,80,40)"
font-family="Arial" font-size="12" font-weight="400" font-style="normal" 
>
<text fill="#333333" fill-opacity="1" stroke="none" xml:space="preserve" x="229" y="34" font-family="Arial" font-size="12" font-weight="400" font-style="normal" 
 >0.1370</text>
</g>
</g>

<clipPath id ="clip20" >
<rect x="0" y="0" height="20" width="273" transform="matrix(1,0,0,1,80,40)" />
</clipPath>
<g  clip-path="url(#clip20)" 
>
<g fill="none" stroke="#333333" stroke-opacity="1" stroke-width="1" stroke-linecap="square" stroke-linejoin="bevel" transform="matrix(1,0,0,1,80,40)"
font-family="Arial" font-size="12" font-weight="400" font-style="normal" 
>
</g>
</g>

<g  clip-path="url(#clip20)" 
>
<g fill="none" stroke="#333333" stroke-opacity="1" stroke-width="1" stroke-linecap="square" stroke-linejoin="bevel" transform="matrix(1,0,0,1,80,40)"
font-family="Arial" font-size="12" font-weight="400" font-style="normal" 
>
<text fill="#333333" fill-opacity="1" stroke="none" xml:space="preserve" x="229" y="14" font-family="Arial" font-size="12" font-weight="400" font-style="normal" 
 >0.2121</text>
</g>
</g>

<clipPath id ="clip21" >
<rect x="0" y="0" height="80" width="273" transform="matrix(1,0,0,1,80,40)" />
</clipPath>
<g  clip-path="url(#clip21)" 
>
<g fill="none" stroke="#333333" stroke-opacity="1" stroke-width="1" stroke-linecap="square" stroke-linejoin="bevel" transform="matrix(1,0,0,1,80,40)"
font-family="Arial" font-size="12" font-weight="400" font-style="normal" 
>
</g>
</g>

<clipPath id ="clip22" >
<rect x="0" y="0" height="81" width="274" transform="matrix(1,0,0,1,80,40)" />
</clipPath>
<g  clip-path="url(#clip22)" 
>
<g fill="none" stroke="#333333" stroke-opacity="1" stroke-width="1" stroke-linecap="square" stroke-linejoin="bevel" transform="matrix(1,0,0,1,80,40)"
font-family="Arial" font-size="12" font-weight="400" font-style="normal" 
>
</g>
</g>

<clipPath id ="clip23" >
<rect x="0" y="0" height="81" width="274" transform="matrix(1,0,0,1,80,40)" />
</clipPath>
<g  clip-path="url(#clip23)" 
>
<g fill="none" stroke="#333333" stroke-opacity="1" stroke-width="1" stroke-linecap="square" stroke-linejoin="bevel" transform="matrix(1,0,0,1,80,40)"
font-family="Arial" font-size="12" font-weight="400" font-style="normal" 
>
</g>
</g>

<clipPath id ="clip24" >
<rect x="0" y="0" height="81" width="274" transform="matrix(1,0,0,1,80,40)" />
</clipPath>
<g  clip-path="url(#clip24)" 
>
<g fill="none" stroke="#333333" stroke-opacity="1" stroke-width="1" stroke-linecap="square" stroke-linejoin="bevel" transform="matrix(1,0,0,1,80,40)"
font-family="Arial" font-size="12" font-weight="400" font-style="normal" 
>
</g>
</g>

<clipPath id ="clip25" >
<rect x="0" y="0" height="80" width="273" transform="matrix(1,0,0,1,80,40)" />
</clipPath>
<g  clip-path="url(#clip25)" 
>
<g fill="none" stroke="#333333" stroke-opacity="1" stroke-width="1" stroke-linecap="square" stroke-linejoin="bevel" transform="matrix(1,0,0,1,80,40)"
font-family="Arial" font-size="12" font-weight="400" font-style="normal" 
>
</g>
</g>

<clipPath id ="clip26" >
<rect x="0" y="0" height="81" width="274" transform="matrix(1,0,0,1,80,40)" />
</clipPath>
<g  clip-path="url(#clip26)" 
>
<g fill="none" stroke="#333333" stroke-opacity="1" stroke-width="1" stroke-linecap="square" stroke-linejoin="bevel" transform="matrix(1,0,0,1,80,40)"
font-family="Arial" font-size="12" font-weight="400" font-style="normal" 
>
</g>
</g>

<clipPath id ="clip27" >
<rect x="0" y="0" height="81" width="274" transform="matrix(1,0,0,1,80,40)" />
</clipPath>
<g  clip-path="url(#clip27)" 
>
<g fill="none" stroke="#333333" stroke-opacity="1" stroke-width="1" stroke-linecap="square" stroke-linejoin="bevel" transform="matrix(1,0,0,1,80,40)"
font-family="Arial" font-size="12" font-weight="400" font-style="normal" 
>
</g>
</g>

<clipPath id ="clip28" >
<rect x="0" y="0" height="81" width="274" transform="matrix(1,0,0,1,80,40)" />
</clipPath>
<g  clip-path="url(#clip28)" 
>
<g fill="none" stroke="#333333" stroke-opacity="1" stroke-width="1" stroke-linecap="square" stroke-linejoin="bevel" transform="matrix(1,0,0,1,80,40)"
font-family="Arial" font-size="12" font-weight="400" font-style="normal" 
>
</g>
</g>

<clipPath id ="clip29" >
<rect x="0" y="0" height="80" width="273" transform="matrix(1,0,0,1,80,40)" />
</clipPath>
<g  clip-path="url(#clip29)" 
>
<g fill="none" stroke="#333333" stroke-opacity="1" stroke-width="1" stroke-linecap="square" stroke-linejoin="bevel" transform="matrix(1,0,0,1,80,40)"
font-family="Arial" font-size="12" font-weight="400" font-style="normal" 
>
</g>
</g>

<clipPath id ="clip30" >
<rect x="0" y="0" height="81" width="274" transform="matrix(1,0,0,1,80,40)" />
</clipPath>
<g  clip-path="url(#clip30)" 
>
<g fill="none" stroke="#333333" stroke-opacity="1" stroke-width="1" stroke-linecap="square" stroke-linejoin="bevel" transform="matrix(1,0,0,1,80,40)"
font-family="Arial" font-size="12" font-weight="400" font-style="normal" 
>
</g>
</g>

<clipPath id ="clip31" >
<rect x="0" y="0" height="81" width="274" transform="matrix(1,0,0,1,80,40)" />
</clipPath>
<g  clip-path="url(#clip31)" 
>
<g fill="none" stroke="#333333" stroke-opacity="1" stroke-width="1" stroke-linecap="square" stroke-linejoin="bevel" transform="matrix(1,0,0,1,80,40)"
font-family="Arial" font-size="12" font-weight="400" font-style="normal" 
>
</g>
</g>

<clipPath id ="clip32" >
<rect x="0" y="0" height="81" width="274" transform="matrix(1,0,0,1,80,40)" />
</clipPath>
<g  clip-path="url(#clip32)" 
>
<g fill="none" stroke="#333333" stroke-opacity="1" stroke-width="1" stroke-linecap="square" stroke-linejoin="bevel" transform="matrix(1,0,0,1,80,40)"
font-family="Arial" font-size="12" font-weight="400" font-style="normal" 
>
</g>
</g>

<clipPath id ="clip33" >
<rect x="0" y="0" height="80" width="273" transform="matrix(1,0,0,1,80,40)" />
</clipPath>
<g  clip-path="url(#clip33)" 
>
<g fill="none" stroke="#333333" stroke-opacity="1" stroke-width="1" stroke-linecap="square" stroke-linejoin="bevel" transform="matrix(1,0,0,1,80,40)"
font-family="Arial" font-size="12" font-weight="400" font-style="normal" 
>
</g>
</g>

<clipPath id ="clip34" >
<rect x="0" y="0" height="81" width="274" transform="matrix(1,0,0,1,80,40)" />
</clipPath>
<g  clip-path="url(#clip34)" 
>
<g fill="none" stroke="#333333" stroke-opacity="1" stroke-width="1" stroke-linecap="square" stroke-linejoin="bevel" transform="matrix(1,0,0,1,80,40)"
font-family="Arial" font-size="12" font-weight="400" font-style="normal" 
>
</g>
</g>

<clipPath id ="clip35" >
<rect x="0" y="0" height="81" width="274" transform="matrix(1,0,0,1,80,40)" />
</clipPath>
<g  clip-path="url(#clip35)" 
>
<g fill="none" stroke="#333333" stroke-opacity="1" stroke-width="1" stroke-linecap="square" stroke-linejoin="bevel" transform="matrix(1,0,0,1,80,40)"
font-family="Arial" font-size="12" font-weight="400" font-style="normal" 
>
</g>
</g>

<clipPath id ="clip36" >
<rect x="0" y="0" height="81" width="274" transform="matrix(1,0,0,1,80,40)" />
</clipPath>
<g  clip-path="url(#clip36)" 
>
<g fill="none" stroke="#333333" stroke-opacity="1" stroke-width="1" stroke-linecap="square" stroke-linejoin="bevel" transform="matrix(1,0,0,1,80,40)"
font-family="Arial" font-size="12" font-weight="400" font-style="normal" 
>
</g>
</g>

<clipPath id ="clip37" >
<rect x="0" y="0" height="80" width="273" transform="matrix(1,0,0,1,80,40)" />
</clipPath>
<g  clip-path="url(#clip37)" 
>
<g fill="none" stroke="#333333" stroke-opacity="1" stroke-width="1" stroke-linecap="square" stroke-linejoin="bevel" transform="matrix(1,0,0,1,80,40)"
font-family="Arial" font-size="12" font-weight="400" font-style="normal" 
>
</g>
</g>

<clipPath id ="clip38" >
<rect x="0" y="0" height="81" width="274" transform="matrix(1,0,0,1,80,40)" />
</clipPath>
<g  clip-path="url(#clip38)" 
>
<g fill="none" stroke="#333333" stroke-opacity="1" stroke-width="1" stroke-linecap="square" stroke-linejoin="bevel" transform="matrix(1,0,0,1,80,40)"
font-family="Arial" font-size="12" font-weight="400" font-style="normal" 
>
</g>
</g>

<clipPath id ="clip39" >
<rect x="0" y="0" height="81" width="274" transform="matrix(1,0,0,1,80,40)" />
</clipPath>
<g  clip-path="url(#clip39)" 
>
<g fill="none" stroke="#333333" stroke-opacity="1" stroke-width="1" stroke-linecap="square" stroke-linejoin="bevel" transform="matrix(1,0,0,1,80,40)"
font-family="Arial" font-size="12" font-weight="400" font-style="normal" 
>
</g>
</g>

<clipPath id ="clip40" >
<rect x="0" y="0" height="81" width="274" transform="matrix(1,0,0,1,80,40)" />
</clipPath>
<g  clip-path="url(#clip40)" 
>
<g fill="none" stroke="#333333" stroke-opacity="1" stroke-width="1" stroke-linecap="square" stroke-linejoin="bevel" transform="matrix(1,0,0,1,80,40)"
font-family="Arial" font-size="12" font-weight="400" font-style="normal" 
>
</g>
</g>

<clipPath id ="clip41" >
<rect x="0" y="0" height="81" width="274" transform="matrix(1,0,0,1,80,40)" />
</clipPath>
<g  clip-path="url(#clip41)" 
>
<g fill="none" stroke="#333333" stroke-opacity="1" stroke-width="1" stroke-linecap="square" stroke-linejoin="bevel" transform="matrix(1,0,0,1,80,40)"
font-family="Arial" font-size="12" font-weight="400" font-style="normal" 
>
</g>
</g>

<g  clip-path="url(#clip41)" 
>
<g fill="none" stroke="#cbcbcb" stroke-opacity="1" stroke-width="1" stroke-linecap="square" stroke-linejoin="bevel" transform="matrix(1,0,0,1,80,40)"
font-family="Arial" font-size="12" font-weight="400" font-style="normal" 
>
<polyline fill="none" vector-effect="none" points="0,0 273,0 " />
<polyline fill="none" vector-effect="none" points="0,80 273,80 " />
</g>
</g>

<clipPath id ="clip42" >
<rect x="0" y="0" height="81" width="274" transform="matrix(1,0,0,1,80,40)" />
</clipPath>
<g  clip-path="url(#clip42)" 
>
<g fill="none" stroke="#cbcbcb" stroke-opacity="1" stroke-width="1" stroke-linecap="square" stroke-linejoin="bevel" transform="matrix(1,0,0,1,80,40)"
font-family="Arial" font-size="12" font-weight="400" font-style="normal" 
>
</g>
</g>

<g >
<g fill="none" stroke="#cbcbcb" stroke-opacity="1" stroke-width="1" stroke-linecap="square" stroke-linejoin="bevel" transform="matrix(1,0,0,1,80,40)"
font-family="Arial" font-size="12" font-weight="400" font-style="normal" 
>
</g>
</g>
</g>
</svg>
