<?xml version="1.0" encoding="UTF-8" standalone="no"?>
<svg width="152.665mm" height="32.0146mm"
 xmlns="http://www.w3.org/2000/svg" xmlns:xlink="http://www.w3.org/1999/xlink"  version="1.2" baseProfile="tiny">
<title>Absolute change 2</title>
<desc>Rendered by Tableau</desc>
<defs>
</defs>
<g fill="none" stroke="black" stroke-width="1" fill-rule="evenodd" stroke-linecap="square" stroke-linejoin="bevel" >

<g >
<g fill="#ffffff" fill-opacity="1" stroke="none" transform="matrix(1,0,0,1,0,0)"
font-family="Benton Sans Book" font-size="16" font-weight="400" font-style="normal" 
>
<rect x="0" y="0" width="577" height="121"/>
</g>
</g>

<g >
<g fill="#ffffff" fill-opacity="1" stroke="none" transform="matrix(1,0,0,1,0,0)"
font-family="Benton Sans Book" font-size="16" font-weight="400" font-style="normal" 
>
<rect x="0" y="0" width="576" height="120"/>
</g>
</g>

<clipPath id ="clip1" >
<rect x="0" y="0" height="120" width="576" transform="matrix(1,0,0,1,0,0)" />
</clipPath>
<g  clip-path="url(#clip1)" 
>
<g fill="none" stroke="#000000" stroke-opacity="1" stroke-width="1" stroke-linecap="square" stroke-linejoin="bevel" transform="matrix(1,0,0,1,0,0)"
font-family="Benton Sans Book" font-size="16" font-weight="400" font-style="normal" 
>
</g>
</g>

<g  clip-path="url(#clip1)" 
>
<g fill="none" stroke="#333333" stroke-opacity="1" stroke-width="1" stroke-linecap="square" stroke-linejoin="bevel" transform="matrix(1,0,0,1,0,0)"
font-family="Arial" font-size="12" font-weight="400" font-style="normal" 
>
<text fill="#333333" fill-opacity="1" stroke="none" xml:space="preserve" x="6" y="34" font-family="Arial" font-size="12" font-weight="400" font-style="normal" 
 >Outcome</text>
</g>
</g>

<g >
<g fill="none" stroke="#333333" stroke-opacity="1" stroke-width="1" stroke-linecap="square" stroke-linejoin="bevel" transform="matrix(1,0,0,1,0,0)"
font-family="Arial" font-size="12" font-weight="400" font-style="normal" 
>
</g>
</g>

<clipPath id ="clip2" >
<rect x="-1" y="-1" height="42" width="242" transform="matrix(1,0,0,1,336,0)" />
</clipPath>
<g  clip-path="url(#clip2)" 
>
<g fill="none" stroke="#333333" stroke-opacity="1" stroke-width="1" stroke-linecap="square" stroke-linejoin="bevel" transform="matrix(1,0,0,1,336,0)"
font-family="Arial" font-size="12" font-weight="400" font-style="normal" 
>
</g>
</g>

<g  clip-path="url(#clip2)" 
>
<g fill="none" stroke="#333333" stroke-opacity="1" stroke-width="1" stroke-linecap="square" stroke-linejoin="bevel" transform="matrix(1,0,0,1,336,0)"
font-family="Arial" font-size="12" font-weight="400" font-style="normal" 
>
<text fill="#333333" fill-opacity="1" stroke="none" xml:space="preserve" x="88.3438" y="14" font-family="Arial" font-size="12" font-weight="400" font-style="normal" 
 >Diet Pattern</text>
</g>
</g>

<g  clip-path="url(#clip2)" 
>
<g fill="none" stroke="#333333" stroke-opacity="1" stroke-width="1" stroke-linecap="square" stroke-linejoin="bevel" transform="matrix(1,0,0,1,336,0)"
font-family="Arial" font-size="12" font-weight="400" font-style="normal" 
>
<text fill="#333333" fill-opacity="1" stroke="none" xml:space="preserve" x="29.3594" y="34" font-family="Arial" font-size="12" font-weight="400" font-style="normal" 
 >MED</text>
</g>
</g>

<g  clip-path="url(#clip2)" 
>
<g fill="none" stroke="#333333" stroke-opacity="1" stroke-width="1" stroke-linecap="square" stroke-linejoin="bevel" transform="matrix(1,0,0,1,336,0)"
font-family="Arial" font-size="12" font-weight="400" font-style="normal" 
>
<text fill="#333333" fill-opacity="1" stroke="none" xml:space="preserve" x="99.3438" y="34" font-family="Arial" font-size="12" font-weight="400" font-style="normal" 
 >US</text>
</g>
</g>

<g  clip-path="url(#clip2)" 
>
<g fill="none" stroke="#333333" stroke-opacity="1" stroke-width="1" stroke-linecap="square" stroke-linejoin="bevel" transform="matrix(1,0,0,1,336,0)"
font-family="Arial" font-size="12" font-weight="400" font-style="normal" 
>
<text fill="#333333" fill-opacity="1" stroke="none" xml:space="preserve" x="150.672" y="34" font-family="Arial" font-size="12" font-weight="400" font-style="normal" 
 >VEG</text>
</g>
</g>

<g  clip-path="url(#clip2)" 
>
<g fill="none" stroke="#333333" stroke-opacity="1" stroke-width="1" stroke-linecap="square" stroke-linejoin="bevel" transform="matrix(1,0,0,1,336,0)"
font-family="Arial" font-size="12" font-weight="400" font-style="normal" 
>
<text fill="#333333" fill-opacity="1" stroke="none" xml:space="preserve" x="202.016" y="34" font-family="Arial" font-size="12" font-weight="400" font-style="normal" 
 >VEGN</text>
</g>
</g>

<g >
<g fill="none" stroke="#333333" stroke-opacity="1" stroke-width="1" stroke-linecap="square" stroke-linejoin="bevel" transform="matrix(1,0,0,1,336,0)"
font-family="Arial" font-size="12" font-weight="400" font-style="normal" 
>
</g>
</g>

<clipPath id ="clip3" >
<rect x="-1" y="-1" height="82" width="338" transform="matrix(1,0,0,1,0,40)" />
</clipPath>
<g  clip-path="url(#clip3)" 
>
<g fill="none" stroke="#333333" stroke-opacity="1" stroke-width="1" stroke-linecap="square" stroke-linejoin="bevel" transform="matrix(1,0,0,1,0,40)"
font-family="Arial" font-size="12" font-weight="400" font-style="normal" 
>
</g>
</g>

<g  clip-path="url(#clip3)" 
>
<g fill="none" stroke="#333333" stroke-opacity="1" stroke-width="1" stroke-linecap="square" stroke-linejoin="bevel" transform="matrix(1,0,0,1,0,40)"
font-family="Arial" font-size="12" font-weight="400" font-style="normal" 
>
<text fill="#333333" fill-opacity="1" stroke="none" xml:space="preserve" x="6" y="14" font-family="Arial" font-size="12" font-weight="400" font-style="normal" 
 >Greenhouse gas emissions (kg CO2-eq/capita/day)</text>
</g>
</g>

<g  clip-path="url(#clip3)" 
>
<g fill="#f5f5f5" fill-opacity="1" stroke="none" transform="matrix(1,0,0,1,0,40)"
font-family="Arial" font-size="12" font-weight="400" font-style="normal" 
>
<rect x="0" y="20" width="336" height="20"/>
</g>
</g>

<g  clip-path="url(#clip3)" 
>
<g fill="none" stroke="#333333" stroke-opacity="1" stroke-width="1" stroke-linecap="square" stroke-linejoin="bevel" transform="matrix(1,0,0,1,0,40)"
font-family="Arial" font-size="12" font-weight="400" font-style="normal" 
>
<text fill="#333333" fill-opacity="1" stroke="none" xml:space="preserve" x="6" y="34" font-family="Arial" font-size="12" font-weight="400" font-style="normal" 
 >Cummulative energy demand (mJ/capita/day)</text>
</g>
</g>

<g  clip-path="url(#clip3)" 
>
<g fill="none" stroke="#333333" stroke-opacity="1" stroke-width="1" stroke-linecap="square" stroke-linejoin="bevel" transform="matrix(1,0,0,1,0,40)"
font-family="Arial" font-size="12" font-weight="400" font-style="normal" 
>
<text fill="#333333" fill-opacity="1" stroke="none" xml:space="preserve" x="6" y="54" font-family="Arial" font-size="12" font-weight="400" font-style="normal" 
 >Bluewater consumption (L/capita/day)</text>
</g>
</g>

<g  clip-path="url(#clip3)" 
>
<g fill="#f5f5f5" fill-opacity="1" stroke="none" transform="matrix(1,0,0,1,0,40)"
font-family="Arial" font-size="12" font-weight="400" font-style="normal" 
>
<rect x="0" y="60" width="336" height="20"/>
</g>
</g>

<g  clip-path="url(#clip3)" 
>
<g fill="none" stroke="#333333" stroke-opacity="1" stroke-width="1" stroke-linecap="square" stroke-linejoin="bevel" transform="matrix(1,0,0,1,0,40)"
font-family="Arial" font-size="12" font-weight="400" font-style="normal" 
>
<text fill="#333333" fill-opacity="1" stroke="none" xml:space="preserve" x="6" y="74" font-family="Arial" font-size="12" font-weight="400" font-style="normal" 
 >Water scarcity footprint (L-eq/capita/day)</text>
</g>
</g>

<g  clip-path="url(#clip3)" 
>
<g fill="none" stroke="#cbcbcb" stroke-opacity="1" stroke-width="1" stroke-linecap="square" stroke-linejoin="bevel" transform="matrix(1,0,0,1,0,40)"
font-family="Arial" font-size="12" font-weight="400" font-style="normal" 
>
<polyline fill="none" vector-effect="none" points="336,0 0,0 " />
<polyline fill="none" vector-effect="none" points="336,80 0,80 " />
</g>
</g>

<g >
<g fill="none" stroke="#cbcbcb" stroke-opacity="1" stroke-width="1" stroke-linecap="square" stroke-linejoin="bevel" transform="matrix(1,0,0,1,0,40)"
font-family="Arial" font-size="12" font-weight="400" font-style="normal" 
>
</g>
</g>

<g  clip-path="url(#clip3)" 
>
<g fill="none" stroke="#cbcbcb" stroke-opacity="1" stroke-width="1" stroke-linecap="square" stroke-linejoin="bevel" transform="matrix(1,0,0,1,336,40)"
font-family="Arial" font-size="12" font-weight="400" font-style="normal" 
>
</g>
</g>

<clipPath id ="clip4" >
<rect x="0" y="0" height="81" width="241" transform="matrix(1,0,0,1,336,40)" />
</clipPath>
<g  clip-path="url(#clip4)" 
>
<g fill="none" stroke="#cbcbcb" stroke-opacity="1" stroke-width="1" stroke-linecap="square" stroke-linejoin="bevel" transform="matrix(1,0,0,1,336,40)"
font-family="Arial" font-size="12" font-weight="400" font-style="normal" 
>
</g>
</g>

<clipPath id ="clip5" >
<rect x="0" y="0" height="81" width="241" transform="matrix(1,0,0,1,336,40)" />
</clipPath>
<g  clip-path="url(#clip5)" 
>
<g fill="none" stroke="#cbcbcb" stroke-opacity="1" stroke-width="1" stroke-linecap="square" stroke-linejoin="bevel" transform="matrix(1,0,0,1,336,40)"
font-family="Arial" font-size="12" font-weight="400" font-style="normal" 
>
</g>
</g>

<g  clip-path="url(#clip5)" 
>
<g fill="#ffffff" fill-opacity="1" stroke="none" transform="matrix(1,0,0,1,336,40)"
font-family="Arial" font-size="12" font-weight="400" font-style="normal" 
>
<rect x="0" y="0" width="241" height="81"/>
</g>
</g>

<g  clip-path="url(#clip5)" 
>
<g fill="#ffffff" fill-opacity="1" stroke="none" transform="matrix(1,0,0,1,336,40)"
font-family="Arial" font-size="12" font-weight="400" font-style="normal" 
>
<rect x="0" y="0" width="241" height="81"/>
</g>
</g>

<clipPath id ="clip6" >
<rect x="0" y="0" height="81" width="241" transform="matrix(1,0,0,1,336,40)" />
</clipPath>
<g  clip-path="url(#clip6)" 
>
<g fill="none" stroke="#cbcbcb" stroke-opacity="1" stroke-width="1" stroke-linecap="square" stroke-linejoin="bevel" transform="matrix(1,0,0,1,336,40)"
font-family="Arial" font-size="12" font-weight="400" font-style="normal" 
>
</g>
</g>

<g  clip-path="url(#clip6)" 
>
<g fill="#ffffff" fill-opacity="1" stroke="none" transform="matrix(1,0,0,1,336,40)"
font-family="Arial" font-size="12" font-weight="400" font-style="normal" 
>
<rect x="0" y="0" width="241" height="81"/>
</g>
</g>

<clipPath id ="clip7" >
<rect x="0" y="0" height="81" width="241" transform="matrix(1,0,0,1,336,40)" />
</clipPath>
<g  clip-path="url(#clip7)" 
>
<g fill="none" stroke="#cbcbcb" stroke-opacity="1" stroke-width="1" stroke-linecap="square" stroke-linejoin="bevel" transform="matrix(1,0,0,1,336,40)"
font-family="Arial" font-size="12" font-weight="400" font-style="normal" 
>
</g>
</g>

<clipPath id ="clip8" >
<rect x="0" y="0" height="81" width="241" transform="matrix(1,0,0,1,336,40)" />
</clipPath>
<g  clip-path="url(#clip8)" 
>
<g fill="none" stroke="#cbcbcb" stroke-opacity="1" stroke-width="1" stroke-linecap="square" stroke-linejoin="bevel" transform="matrix(1,0,0,1,336,40)"
font-family="Arial" font-size="12" font-weight="400" font-style="normal" 
>
</g>
</g>

<clipPath id ="clip9" >
<rect x="0" y="0" height="81" width="241" transform="matrix(1,0,0,1,336,40)" />
</clipPath>
<g  clip-path="url(#clip9)" 
>
<g fill="none" stroke="#cbcbcb" stroke-opacity="1" stroke-width="1" stroke-linecap="square" stroke-linejoin="bevel" transform="matrix(1,0,0,1,336,40)"
font-family="Arial" font-size="12" font-weight="400" font-style="normal" 
>
</g>
</g>

<clipPath id ="clip10" >
<rect x="0" y="0" height="81" width="241" transform="matrix(1,0,0,1,336,40)" />
</clipPath>
<g  clip-path="url(#clip10)" 
>
<g fill="none" stroke="#cbcbcb" stroke-opacity="1" stroke-width="1" stroke-linecap="square" stroke-linejoin="bevel" transform="matrix(1,0,0,1,336,40)"
font-family="Arial" font-size="12" font-weight="400" font-style="normal" 
>
</g>
</g>

<g  clip-path="url(#clip10)" 
>
<g fill="#ffffff" fill-opacity="1" stroke="none" transform="matrix(1,0,0,1,336,40)"
font-family="Arial" font-size="12" font-weight="400" font-style="normal" 
>
<rect x="0" y="0" width="241" height="81"/>
</g>
</g>

<g  clip-path="url(#clip10)" 
>
<g fill="#f5f5f5" fill-opacity="1" stroke="none" transform="matrix(1,0,0,1,336,40)"
font-family="Arial" font-size="12" font-weight="400" font-style="normal" 
>
<rect x="0" y="20" width="240" height="20"/>
</g>
</g>

<g  clip-path="url(#clip10)" 
>
<g fill="#f5f5f5" fill-opacity="1" stroke="none" transform="matrix(1,0,0,1,336,40)"
font-family="Arial" font-size="12" font-weight="400" font-style="normal" 
>
<rect x="0" y="60" width="240" height="20"/>
</g>
</g>

<clipPath id ="clip11" >
<rect x="0" y="0" height="81" width="241" transform="matrix(1,0,0,1,336,40)" />
</clipPath>
<g  clip-path="url(#clip11)" 
>
<g fill="none" stroke="#cbcbcb" stroke-opacity="1" stroke-width="1" stroke-linecap="square" stroke-linejoin="bevel" transform="matrix(1,0,0,1,336,40)"
font-family="Arial" font-size="12" font-weight="400" font-style="normal" 
>
</g>
</g>

<clipPath id ="clip12" >
<rect x="0" y="0" height="80" width="240" transform="matrix(1,0,0,1,336,40)" />
</clipPath>
<g  clip-path="url(#clip12)" 
>
<g fill="none" stroke="#cbcbcb" stroke-opacity="1" stroke-width="1" stroke-linecap="square" stroke-linejoin="bevel" transform="matrix(1,0,0,1,336,40)"
font-family="Arial" font-size="12" font-weight="400" font-style="normal" 
>
</g>
</g>

<clipPath id ="clip13" >
<rect x="0" y="0" height="81" width="241" transform="matrix(1,0,0,1,336,40)" />
</clipPath>
<g  clip-path="url(#clip13)" 
>
<g fill="none" stroke="#cbcbcb" stroke-opacity="1" stroke-width="1" stroke-linecap="square" stroke-linejoin="bevel" transform="matrix(1,0,0,1,336,40)"
font-family="Arial" font-size="12" font-weight="400" font-style="normal" 
>
</g>
</g>

<clipPath id ="clip14" >
<rect x="0" y="0" height="81" width="241" transform="matrix(1,0,0,1,336,40)" />
</clipPath>
<g  clip-path="url(#clip14)" 
>
<g fill="none" stroke="#cbcbcb" stroke-opacity="1" stroke-width="1" stroke-linecap="square" stroke-linejoin="bevel" transform="matrix(1,0,0,1,336,40)"
font-family="Arial" font-size="12" font-weight="400" font-style="normal" 
>
</g>
</g>

<clipPath id ="clip15" >
<rect x="0" y="0" height="81" width="241" transform="matrix(1,0,0,1,336,40)" />
</clipPath>
<g  clip-path="url(#clip15)" 
>
<g fill="none" stroke="#cbcbcb" stroke-opacity="1" stroke-width="1" stroke-linecap="square" stroke-linejoin="bevel" transform="matrix(1,0,0,1,336,40)"
font-family="Arial" font-size="12" font-weight="400" font-style="normal" 
>
</g>
</g>

<clipPath id ="clip16" >
<rect x="0" y="0" height="80" width="240" transform="matrix(1,0,0,1,336,40)" />
</clipPath>
<g  clip-path="url(#clip16)" 
>
<g fill="none" stroke="#cbcbcb" stroke-opacity="1" stroke-width="1" stroke-linecap="square" stroke-linejoin="bevel" transform="matrix(1,0,0,1,336,40)"
font-family="Arial" font-size="12" font-weight="400" font-style="normal" 
>
</g>
</g>

<clipPath id ="clip17" >
<rect x="180" y="60" height="20" width="60" transform="matrix(1,0,0,1,336,40)" />
</clipPath>
<g  clip-path="url(#clip17)" 
>
<g fill="none" stroke="#cbcbcb" stroke-opacity="1" stroke-width="1" stroke-linecap="square" stroke-linejoin="bevel" transform="matrix(1,0,0,1,336,40)"
font-family="Arial" font-size="12" font-weight="400" font-style="normal" 
>
</g>
</g>

<g  clip-path="url(#clip17)" 
>
<g fill="none" stroke="#333333" stroke-opacity="1" stroke-width="1" stroke-linecap="square" stroke-linejoin="bevel" transform="matrix(1,0,0,1,336,40)"
font-family="Arial" font-size="12" font-weight="400" font-style="normal" 
>
<text fill="#333333" fill-opacity="1" stroke="none" xml:space="preserve" x="210" y="74" font-family="Arial" font-size="12" font-weight="400" font-style="normal" 
 >96.3</text>
</g>
</g>

<clipPath id ="clip18" >
<rect x="180" y="40" height="20" width="60" transform="matrix(1,0,0,1,336,40)" />
</clipPath>
<g  clip-path="url(#clip18)" 
>
<g fill="none" stroke="#333333" stroke-opacity="1" stroke-width="1" stroke-linecap="square" stroke-linejoin="bevel" transform="matrix(1,0,0,1,336,40)"
font-family="Arial" font-size="12" font-weight="400" font-style="normal" 
>
</g>
</g>

<g  clip-path="url(#clip18)" 
>
<g fill="none" stroke="#333333" stroke-opacity="1" stroke-width="1" stroke-linecap="square" stroke-linejoin="bevel" transform="matrix(1,0,0,1,336,40)"
font-family="Arial" font-size="12" font-weight="400" font-style="normal" 
>
<text fill="#333333" fill-opacity="1" stroke="none" xml:space="preserve" x="207" y="54" font-family="Arial" font-size="12" font-weight="400" font-style="normal" 
 >-72.4</text>
</g>
</g>

<clipPath id ="clip19" >
<rect x="180" y="20" height="20" width="60" transform="matrix(1,0,0,1,336,40)" />
</clipPath>
<g  clip-path="url(#clip19)" 
>
<g fill="none" stroke="#333333" stroke-opacity="1" stroke-width="1" stroke-linecap="square" stroke-linejoin="bevel" transform="matrix(1,0,0,1,336,40)"
font-family="Arial" font-size="12" font-weight="400" font-style="normal" 
>
</g>
</g>

<g  clip-path="url(#clip19)" 
>
<g fill="none" stroke="#333333" stroke-opacity="1" stroke-width="1" stroke-linecap="square" stroke-linejoin="bevel" transform="matrix(1,0,0,1,336,40)"
font-family="Arial" font-size="12" font-weight="400" font-style="normal" 
>
<text fill="#333333" fill-opacity="1" stroke="none" xml:space="preserve" x="207" y="34" font-family="Arial" font-size="12" font-weight="400" font-style="normal" 
 >-11.4</text>
</g>
</g>

<clipPath id ="clip20" >
<rect x="180" y="0" height="20" width="60" transform="matrix(1,0,0,1,336,40)" />
</clipPath>
<g  clip-path="url(#clip20)" 
>
<g fill="none" stroke="#333333" stroke-opacity="1" stroke-width="1" stroke-linecap="square" stroke-linejoin="bevel" transform="matrix(1,0,0,1,336,40)"
font-family="Arial" font-size="12" font-weight="400" font-style="normal" 
>
</g>
</g>

<g  clip-path="url(#clip20)" 
>
<g fill="none" stroke="#333333" stroke-opacity="1" stroke-width="1" stroke-linecap="square" stroke-linejoin="bevel" transform="matrix(1,0,0,1,336,40)"
font-family="Arial" font-size="12" font-weight="400" font-style="normal" 
>
<text fill="#333333" fill-opacity="1" stroke="none" xml:space="preserve" x="214" y="14" font-family="Arial" font-size="12" font-weight="400" font-style="normal" 
 >-2.9</text>
</g>
</g>

<clipPath id ="clip21" >
<rect x="120" y="60" height="20" width="60" transform="matrix(1,0,0,1,336,40)" />
</clipPath>
<g  clip-path="url(#clip21)" 
>
<g fill="none" stroke="#333333" stroke-opacity="1" stroke-width="1" stroke-linecap="square" stroke-linejoin="bevel" transform="matrix(1,0,0,1,336,40)"
font-family="Arial" font-size="12" font-weight="400" font-style="normal" 
>
</g>
</g>

<g  clip-path="url(#clip21)" 
>
<g fill="none" stroke="#333333" stroke-opacity="1" stroke-width="1" stroke-linecap="square" stroke-linejoin="bevel" transform="matrix(1,0,0,1,336,40)"
font-family="Arial" font-size="12" font-weight="400" font-style="normal" 
>
<text fill="#333333" fill-opacity="1" stroke="none" xml:space="preserve" x="143" y="74" font-family="Arial" font-size="12" font-weight="400" font-style="normal" 
 >338.8</text>
</g>
</g>

<clipPath id ="clip22" >
<rect x="120" y="40" height="20" width="60" transform="matrix(1,0,0,1,336,40)" />
</clipPath>
<g  clip-path="url(#clip22)" 
>
<g fill="none" stroke="#333333" stroke-opacity="1" stroke-width="1" stroke-linecap="square" stroke-linejoin="bevel" transform="matrix(1,0,0,1,336,40)"
font-family="Arial" font-size="12" font-weight="400" font-style="normal" 
>
</g>
</g>

<g  clip-path="url(#clip22)" 
>
<g fill="none" stroke="#333333" stroke-opacity="1" stroke-width="1" stroke-linecap="square" stroke-linejoin="bevel" transform="matrix(1,0,0,1,336,40)"
font-family="Arial" font-size="12" font-weight="400" font-style="normal" 
>
<text fill="#333333" fill-opacity="1" stroke="none" xml:space="preserve" x="154" y="54" font-family="Arial" font-size="12" font-weight="400" font-style="normal" 
 >-9.6</text>
</g>
</g>

<clipPath id ="clip23" >
<rect x="120" y="20" height="20" width="60" transform="matrix(1,0,0,1,336,40)" />
</clipPath>
<g  clip-path="url(#clip23)" 
>
<g fill="none" stroke="#333333" stroke-opacity="1" stroke-width="1" stroke-linecap="square" stroke-linejoin="bevel" transform="matrix(1,0,0,1,336,40)"
font-family="Arial" font-size="12" font-weight="400" font-style="normal" 
>
</g>
</g>

<g  clip-path="url(#clip23)" 
>
<g fill="none" stroke="#333333" stroke-opacity="1" stroke-width="1" stroke-linecap="square" stroke-linejoin="bevel" transform="matrix(1,0,0,1,336,40)"
font-family="Arial" font-size="12" font-weight="400" font-style="normal" 
>
<text fill="#333333" fill-opacity="1" stroke="none" xml:space="preserve" x="154" y="34" font-family="Arial" font-size="12" font-weight="400" font-style="normal" 
 >-6.2</text>
</g>
</g>

<clipPath id ="clip24" >
<rect x="120" y="0" height="20" width="60" transform="matrix(1,0,0,1,336,40)" />
</clipPath>
<g  clip-path="url(#clip24)" 
>
<g fill="none" stroke="#333333" stroke-opacity="1" stroke-width="1" stroke-linecap="square" stroke-linejoin="bevel" transform="matrix(1,0,0,1,336,40)"
font-family="Arial" font-size="12" font-weight="400" font-style="normal" 
>
</g>
</g>

<g  clip-path="url(#clip24)" 
>
<g fill="none" stroke="#333333" stroke-opacity="1" stroke-width="1" stroke-linecap="square" stroke-linejoin="bevel" transform="matrix(1,0,0,1,336,40)"
font-family="Arial" font-size="12" font-weight="400" font-style="normal" 
>
<text fill="#333333" fill-opacity="1" stroke="none" xml:space="preserve" x="154" y="14" font-family="Arial" font-size="12" font-weight="400" font-style="normal" 
 >-1.9</text>
</g>
</g>

<clipPath id ="clip25" >
<rect x="60" y="60" height="20" width="60" transform="matrix(1,0,0,1,336,40)" />
</clipPath>
<g  clip-path="url(#clip25)" 
>
<g fill="none" stroke="#333333" stroke-opacity="1" stroke-width="1" stroke-linecap="square" stroke-linejoin="bevel" transform="matrix(1,0,0,1,336,40)"
font-family="Arial" font-size="12" font-weight="400" font-style="normal" 
>
</g>
</g>

<g  clip-path="url(#clip25)" 
>
<g fill="none" stroke="#333333" stroke-opacity="1" stroke-width="1" stroke-linecap="square" stroke-linejoin="bevel" transform="matrix(1,0,0,1,336,40)"
font-family="Arial" font-size="12" font-weight="400" font-style="normal" 
>
<text fill="#333333" fill-opacity="1" stroke="none" xml:space="preserve" x="83" y="74" font-family="Arial" font-size="12" font-weight="400" font-style="normal" 
 >683.2</text>
</g>
</g>

<clipPath id ="clip26" >
<rect x="60" y="40" height="20" width="60" transform="matrix(1,0,0,1,336,40)" />
</clipPath>
<g  clip-path="url(#clip26)" 
>
<g fill="none" stroke="#333333" stroke-opacity="1" stroke-width="1" stroke-linecap="square" stroke-linejoin="bevel" transform="matrix(1,0,0,1,336,40)"
font-family="Arial" font-size="12" font-weight="400" font-style="normal" 
>
</g>
</g>

<g  clip-path="url(#clip26)" 
>
<g fill="none" stroke="#333333" stroke-opacity="1" stroke-width="1" stroke-linecap="square" stroke-linejoin="bevel" transform="matrix(1,0,0,1,336,40)"
font-family="Arial" font-size="12" font-weight="400" font-style="normal" 
>
<text fill="#333333" fill-opacity="1" stroke="none" xml:space="preserve" x="90" y="54" font-family="Arial" font-size="12" font-weight="400" font-style="normal" 
 >73.1</text>
</g>
</g>

<clipPath id ="clip27" >
<rect x="60" y="20" height="20" width="60" transform="matrix(1,0,0,1,336,40)" />
</clipPath>
<g  clip-path="url(#clip27)" 
>
<g fill="none" stroke="#333333" stroke-opacity="1" stroke-width="1" stroke-linecap="square" stroke-linejoin="bevel" transform="matrix(1,0,0,1,336,40)"
font-family="Arial" font-size="12" font-weight="400" font-style="normal" 
>
</g>
</g>

<g  clip-path="url(#clip27)" 
>
<g fill="none" stroke="#333333" stroke-opacity="1" stroke-width="1" stroke-linecap="square" stroke-linejoin="bevel" transform="matrix(1,0,0,1,336,40)"
font-family="Arial" font-size="12" font-weight="400" font-style="normal" 
>
<text fill="#333333" fill-opacity="1" stroke="none" xml:space="preserve" x="98" y="34" font-family="Arial" font-size="12" font-weight="400" font-style="normal" 
 >6.0</text>
</g>
</g>

<clipPath id ="clip28" >
<rect x="60" y="0" height="20" width="60" transform="matrix(1,0,0,1,336,40)" />
</clipPath>
<g  clip-path="url(#clip28)" 
>
<g fill="none" stroke="#333333" stroke-opacity="1" stroke-width="1" stroke-linecap="square" stroke-linejoin="bevel" transform="matrix(1,0,0,1,336,40)"
font-family="Arial" font-size="12" font-weight="400" font-style="normal" 
>
</g>
</g>

<g  clip-path="url(#clip28)" 
>
<g fill="none" stroke="#333333" stroke-opacity="1" stroke-width="1" stroke-linecap="square" stroke-linejoin="bevel" transform="matrix(1,0,0,1,336,40)"
font-family="Arial" font-size="12" font-weight="400" font-style="normal" 
>
<text fill="#333333" fill-opacity="1" stroke="none" xml:space="preserve" x="98" y="14" font-family="Arial" font-size="12" font-weight="400" font-style="normal" 
 >0.3</text>
</g>
</g>

<clipPath id ="clip29" >
<rect x="0" y="60" height="20" width="60" transform="matrix(1,0,0,1,336,40)" />
</clipPath>
<g  clip-path="url(#clip29)" 
>
<g fill="none" stroke="#333333" stroke-opacity="1" stroke-width="1" stroke-linecap="square" stroke-linejoin="bevel" transform="matrix(1,0,0,1,336,40)"
font-family="Arial" font-size="12" font-weight="400" font-style="normal" 
>
</g>
</g>

<g  clip-path="url(#clip29)" 
>
<g fill="none" stroke="#333333" stroke-opacity="1" stroke-width="1" stroke-linecap="square" stroke-linejoin="bevel" transform="matrix(1,0,0,1,336,40)"
font-family="Arial" font-size="12" font-weight="400" font-style="normal" 
>
<text fill="#333333" fill-opacity="1" stroke="none" xml:space="preserve" x="23" y="74" font-family="Arial" font-size="12" font-weight="400" font-style="normal" 
 >896.4</text>
</g>
</g>

<clipPath id ="clip30" >
<rect x="0" y="40" height="20" width="60" transform="matrix(1,0,0,1,336,40)" />
</clipPath>
<g  clip-path="url(#clip30)" 
>
<g fill="none" stroke="#333333" stroke-opacity="1" stroke-width="1" stroke-linecap="square" stroke-linejoin="bevel" transform="matrix(1,0,0,1,336,40)"
font-family="Arial" font-size="12" font-weight="400" font-style="normal" 
>
</g>
</g>

<g  clip-path="url(#clip30)" 
>
<g fill="none" stroke="#333333" stroke-opacity="1" stroke-width="1" stroke-linecap="square" stroke-linejoin="bevel" transform="matrix(1,0,0,1,336,40)"
font-family="Arial" font-size="12" font-weight="400" font-style="normal" 
>
<text fill="#333333" fill-opacity="1" stroke="none" xml:space="preserve" x="30" y="54" font-family="Arial" font-size="12" font-weight="400" font-style="normal" 
 >90.7</text>
</g>
</g>

<clipPath id ="clip31" >
<rect x="0" y="20" height="20" width="60" transform="matrix(1,0,0,1,336,40)" />
</clipPath>
<g  clip-path="url(#clip31)" 
>
<g fill="none" stroke="#333333" stroke-opacity="1" stroke-width="1" stroke-linecap="square" stroke-linejoin="bevel" transform="matrix(1,0,0,1,336,40)"
font-family="Arial" font-size="12" font-weight="400" font-style="normal" 
>
</g>
</g>

<g  clip-path="url(#clip31)" 
>
<g fill="none" stroke="#333333" stroke-opacity="1" stroke-width="1" stroke-linecap="square" stroke-linejoin="bevel" transform="matrix(1,0,0,1,336,40)"
font-family="Arial" font-size="12" font-weight="400" font-style="normal" 
>
<text fill="#333333" fill-opacity="1" stroke="none" xml:space="preserve" x="30" y="34" font-family="Arial" font-size="12" font-weight="400" font-style="normal" 
 >11.4</text>
</g>
</g>

<clipPath id ="clip32" >
<rect x="0" y="0" height="20" width="60" transform="matrix(1,0,0,1,336,40)" />
</clipPath>
<g  clip-path="url(#clip32)" 
>
<g fill="none" stroke="#333333" stroke-opacity="1" stroke-width="1" stroke-linecap="square" stroke-linejoin="bevel" transform="matrix(1,0,0,1,336,40)"
font-family="Arial" font-size="12" font-weight="400" font-style="normal" 
>
</g>
</g>

<g  clip-path="url(#clip32)" 
>
<g fill="none" stroke="#333333" stroke-opacity="1" stroke-width="1" stroke-linecap="square" stroke-linejoin="bevel" transform="matrix(1,0,0,1,336,40)"
font-family="Arial" font-size="12" font-weight="400" font-style="normal" 
>
<text fill="#333333" fill-opacity="1" stroke="none" xml:space="preserve" x="38" y="14" font-family="Arial" font-size="12" font-weight="400" font-style="normal" 
 >0.4</text>
</g>
</g>

<clipPath id ="clip33" >
<rect x="0" y="0" height="80" width="240" transform="matrix(1,0,0,1,336,40)" />
</clipPath>
<g  clip-path="url(#clip33)" 
>
<g fill="none" stroke="#333333" stroke-opacity="1" stroke-width="1" stroke-linecap="square" stroke-linejoin="bevel" transform="matrix(1,0,0,1,336,40)"
font-family="Arial" font-size="12" font-weight="400" font-style="normal" 
>
</g>
</g>

<clipPath id ="clip34" >
<rect x="0" y="0" height="81" width="241" transform="matrix(1,0,0,1,336,40)" />
</clipPath>
<g  clip-path="url(#clip34)" 
>
<g fill="none" stroke="#333333" stroke-opacity="1" stroke-width="1" stroke-linecap="square" stroke-linejoin="bevel" transform="matrix(1,0,0,1,336,40)"
font-family="Arial" font-size="12" font-weight="400" font-style="normal" 
>
</g>
</g>

<clipPath id ="clip35" >
<rect x="0" y="0" height="81" width="241" transform="matrix(1,0,0,1,336,40)" />
</clipPath>
<g  clip-path="url(#clip35)" 
>
<g fill="none" stroke="#333333" stroke-opacity="1" stroke-width="1" stroke-linecap="square" stroke-linejoin="bevel" transform="matrix(1,0,0,1,336,40)"
font-family="Arial" font-size="12" font-weight="400" font-style="normal" 
>
</g>
</g>

<clipPath id ="clip36" >
<rect x="0" y="0" height="81" width="241" transform="matrix(1,0,0,1,336,40)" />
</clipPath>
<g  clip-path="url(#clip36)" 
>
<g fill="none" stroke="#333333" stroke-opacity="1" stroke-width="1" stroke-linecap="square" stroke-linejoin="bevel" transform="matrix(1,0,0,1,336,40)"
font-family="Arial" font-size="12" font-weight="400" font-style="normal" 
>
</g>
</g>

<clipPath id ="clip37" >
<rect x="0" y="0" height="80" width="240" transform="matrix(1,0,0,1,336,40)" />
</clipPath>
<g  clip-path="url(#clip37)" 
>
<g fill="none" stroke="#333333" stroke-opacity="1" stroke-width="1" stroke-linecap="square" stroke-linejoin="bevel" transform="matrix(1,0,0,1,336,40)"
font-family="Arial" font-size="12" font-weight="400" font-style="normal" 
>
</g>
</g>

<clipPath id ="clip38" >
<rect x="0" y="0" height="81" width="241" transform="matrix(1,0,0,1,336,40)" />
</clipPath>
<g  clip-path="url(#clip38)" 
>
<g fill="none" stroke="#333333" stroke-opacity="1" stroke-width="1" stroke-linecap="square" stroke-linejoin="bevel" transform="matrix(1,0,0,1,336,40)"
font-family="Arial" font-size="12" font-weight="400" font-style="normal" 
>
</g>
</g>

<clipPath id ="clip39" >
<rect x="0" y="0" height="81" width="241" transform="matrix(1,0,0,1,336,40)" />
</clipPath>
<g  clip-path="url(#clip39)" 
>
<g fill="none" stroke="#333333" stroke-opacity="1" stroke-width="1" stroke-linecap="square" stroke-linejoin="bevel" transform="matrix(1,0,0,1,336,40)"
font-family="Arial" font-size="12" font-weight="400" font-style="normal" 
>
</g>
</g>

<clipPath id ="clip40" >
<rect x="0" y="0" height="81" width="241" transform="matrix(1,0,0,1,336,40)" />
</clipPath>
<g  clip-path="url(#clip40)" 
>
<g fill="none" stroke="#333333" stroke-opacity="1" stroke-width="1" stroke-linecap="square" stroke-linejoin="bevel" transform="matrix(1,0,0,1,336,40)"
font-family="Arial" font-size="12" font-weight="400" font-style="normal" 
>
</g>
</g>

<clipPath id ="clip41" >
<rect x="0" y="0" height="80" width="240" transform="matrix(1,0,0,1,336,40)" />
</clipPath>
<g  clip-path="url(#clip41)" 
>
<g fill="none" stroke="#333333" stroke-opacity="1" stroke-width="1" stroke-linecap="square" stroke-linejoin="bevel" transform="matrix(1,0,0,1,336,40)"
font-family="Arial" font-size="12" font-weight="400" font-style="normal" 
>
</g>
</g>

<clipPath id ="clip42" >
<rect x="0" y="0" height="81" width="241" transform="matrix(1,0,0,1,336,40)" />
</clipPath>
<g  clip-path="url(#clip42)" 
>
<g fill="none" stroke="#333333" stroke-opacity="1" stroke-width="1" stroke-linecap="square" stroke-linejoin="bevel" transform="matrix(1,0,0,1,336,40)"
font-family="Arial" font-size="12" font-weight="400" font-style="normal" 
>
</g>
</g>

<clipPath id ="clip43" >
<rect x="0" y="0" height="81" width="241" transform="matrix(1,0,0,1,336,40)" />
</clipPath>
<g  clip-path="url(#clip43)" 
>
<g fill="none" stroke="#333333" stroke-opacity="1" stroke-width="1" stroke-linecap="square" stroke-linejoin="bevel" transform="matrix(1,0,0,1,336,40)"
font-family="Arial" font-size="12" font-weight="400" font-style="normal" 
>
</g>
</g>

<clipPath id ="clip44" >
<rect x="0" y="0" height="81" width="241" transform="matrix(1,0,0,1,336,40)" />
</clipPath>
<g  clip-path="url(#clip44)" 
>
<g fill="none" stroke="#333333" stroke-opacity="1" stroke-width="1" stroke-linecap="square" stroke-linejoin="bevel" transform="matrix(1,0,0,1,336,40)"
font-family="Arial" font-size="12" font-weight="400" font-style="normal" 
>
</g>
</g>

<clipPath id ="clip45" >
<rect x="0" y="0" height="80" width="240" transform="matrix(1,0,0,1,336,40)" />
</clipPath>
<g  clip-path="url(#clip45)" 
>
<g fill="none" stroke="#333333" stroke-opacity="1" stroke-width="1" stroke-linecap="square" stroke-linejoin="bevel" transform="matrix(1,0,0,1,336,40)"
font-family="Arial" font-size="12" font-weight="400" font-style="normal" 
>
</g>
</g>

<clipPath id ="clip46" >
<rect x="0" y="0" height="81" width="241" transform="matrix(1,0,0,1,336,40)" />
</clipPath>
<g  clip-path="url(#clip46)" 
>
<g fill="none" stroke="#333333" stroke-opacity="1" stroke-width="1" stroke-linecap="square" stroke-linejoin="bevel" transform="matrix(1,0,0,1,336,40)"
font-family="Arial" font-size="12" font-weight="400" font-style="normal" 
>
</g>
</g>

<clipPath id ="clip47" >
<rect x="0" y="0" height="81" width="241" transform="matrix(1,0,0,1,336,40)" />
</clipPath>
<g  clip-path="url(#clip47)" 
>
<g fill="none" stroke="#333333" stroke-opacity="1" stroke-width="1" stroke-linecap="square" stroke-linejoin="bevel" transform="matrix(1,0,0,1,336,40)"
font-family="Arial" font-size="12" font-weight="400" font-style="normal" 
>
</g>
</g>

<clipPath id ="clip48" >
<rect x="0" y="0" height="81" width="241" transform="matrix(1,0,0,1,336,40)" />
</clipPath>
<g  clip-path="url(#clip48)" 
>
<g fill="none" stroke="#333333" stroke-opacity="1" stroke-width="1" stroke-linecap="square" stroke-linejoin="bevel" transform="matrix(1,0,0,1,336,40)"
font-family="Arial" font-size="12" font-weight="400" font-style="normal" 
>
</g>
</g>

<clipPath id ="clip49" >
<rect x="0" y="0" height="80" width="240" transform="matrix(1,0,0,1,336,40)" />
</clipPath>
<g  clip-path="url(#clip49)" 
>
<g fill="none" stroke="#333333" stroke-opacity="1" stroke-width="1" stroke-linecap="square" stroke-linejoin="bevel" transform="matrix(1,0,0,1,336,40)"
font-family="Arial" font-size="12" font-weight="400" font-style="normal" 
>
</g>
</g>

<clipPath id ="clip50" >
<rect x="0" y="0" height="81" width="241" transform="matrix(1,0,0,1,336,40)" />
</clipPath>
<g  clip-path="url(#clip50)" 
>
<g fill="none" stroke="#333333" stroke-opacity="1" stroke-width="1" stroke-linecap="square" stroke-linejoin="bevel" transform="matrix(1,0,0,1,336,40)"
font-family="Arial" font-size="12" font-weight="400" font-style="normal" 
>
</g>
</g>

<clipPath id ="clip51" >
<rect x="0" y="0" height="81" width="241" transform="matrix(1,0,0,1,336,40)" />
</clipPath>
<g  clip-path="url(#clip51)" 
>
<g fill="none" stroke="#333333" stroke-opacity="1" stroke-width="1" stroke-linecap="square" stroke-linejoin="bevel" transform="matrix(1,0,0,1,336,40)"
font-family="Arial" font-size="12" font-weight="400" font-style="normal" 
>
</g>
</g>

<clipPath id ="clip52" >
<rect x="0" y="0" height="81" width="241" transform="matrix(1,0,0,1,336,40)" />
</clipPath>
<g  clip-path="url(#clip52)" 
>
<g fill="none" stroke="#333333" stroke-opacity="1" stroke-width="1" stroke-linecap="square" stroke-linejoin="bevel" transform="matrix(1,0,0,1,336,40)"
font-family="Arial" font-size="12" font-weight="400" font-style="normal" 
>
</g>
</g>

<clipPath id ="clip53" >
<rect x="0" y="0" height="81" width="241" transform="matrix(1,0,0,1,336,40)" />
</clipPath>
<g  clip-path="url(#clip53)" 
>
<g fill="none" stroke="#333333" stroke-opacity="1" stroke-width="1" stroke-linecap="square" stroke-linejoin="bevel" transform="matrix(1,0,0,1,336,40)"
font-family="Arial" font-size="12" font-weight="400" font-style="normal" 
>
</g>
</g>

<g  clip-path="url(#clip53)" 
>
<g fill="none" stroke="#cbcbcb" stroke-opacity="1" stroke-width="1" stroke-linecap="square" stroke-linejoin="bevel" transform="matrix(1,0,0,1,336,40)"
font-family="Arial" font-size="12" font-weight="400" font-style="normal" 
>
<polyline fill="none" vector-effect="none" points="0,0 240,0 " />
<polyline fill="none" vector-effect="none" points="0,80 240,80 " />
</g>
</g>

<clipPath id ="clip54" >
<rect x="0" y="0" height="81" width="241" transform="matrix(1,0,0,1,336,40)" />
</clipPath>
<g  clip-path="url(#clip54)" 
>
<g fill="none" stroke="#cbcbcb" stroke-opacity="1" stroke-width="1" stroke-linecap="square" stroke-linejoin="bevel" transform="matrix(1,0,0,1,336,40)"
font-family="Arial" font-size="12" font-weight="400" font-style="normal" 
>
</g>
</g>

<g >
<g fill="none" stroke="#cbcbcb" stroke-opacity="1" stroke-width="1" stroke-linecap="square" stroke-linejoin="bevel" transform="matrix(1,0,0,1,336,40)"
font-family="Arial" font-size="12" font-weight="400" font-style="normal" 
>
</g>
</g>
</g>
</svg>
